<svg width="80" height="96" viewBox="0 0 80 96" fill="none" xmlns="http://www.w3.org/2000/svg">
<circle cx="39.5" cy="37.5" r="16.5" stroke="white" stroke-opacity="0.5" stroke-width="4"/>
<path d="M46.665 9.33008L47.4707 10.1191L48.5625 9.83887L57.5996 7.51562L60.1074 16.5039L60.4102 17.5898L61.4961 17.8926L70.4834 20.3994L68.1611 29.4375L67.8809 30.5293L68.6699 31.335L75.1992 38L68.6699 44.665L67.8809 45.4707L68.1611 46.5625L70.4834 55.5996L61.4961 58.1074L60.4102 58.4102L60.1074 59.4961L57.5996 68.4834L48.5625 66.1611L47.4707 65.8809L46.665 66.6699L40 73.1992L33.335 66.6699L32.5293 65.8809L31.4375 66.1611L22.3994 68.4834L19.8926 59.4961L19.5898 58.4102L18.5039 58.1074L9.51562 55.5996L11.8389 46.5625L12.1191 45.4707L11.3301 44.665L4.7998 38L11.3301 31.335L12.1191 30.5293L11.8389 29.4375L9.51562 20.3994L18.5039 17.8926L19.5898 17.5898L19.8926 16.5039L22.3994 7.51562L31.4375 9.83887L32.5293 10.1191L33.335 9.33008L40 2.7998L46.665 9.33008Z" stroke="white" stroke-width="4"/>
<path d="M15.0042 58L4.00618 82.1799L17.1208 81.5075L25.2273 91.8386L30.4508 80.3303" stroke="white" stroke-width="4"/>
<path d="M44.5571 68.8221L55.0041 91.8386L63.1106 81.5075L76.2252 82.1799L70.7262 70.0899" stroke="white" stroke-width="4"/>
</svg>
