
<svg version="1.0" xmlns="http://www.w3.org/2000/svg"
 width="200px" height="150px" viewBox="0 0 457.000000 296.000000"
 preserveAspectRatio="xMidYMid meet">

<g transform="translate(0.000000,296.000000) scale(0.100000,-0.100000)"
fill="#159446" stroke="none">
<path d="M2169 2666 c-111 -42 -191 -114 -237 -214 -24 -50 -27 -69 -27 -157
1 -90 4 -106 30 -160 76 -158 255 -249 422 -215 197 41 324 206 311 405 -6 91
-40 168 -108 239 -74 78 -149 110 -265 113 -57 2 -103 -2 -126 -11z m181 -226
l0 -80 80 0 80 0 0 -60 0 -60 -80 0 -80 0 0 -85 0 -85 -65 0 -65 0 0 85 0 85
-80 0 -80 0 0 60 0 60 80 0 80 0 0 80 0 80 65 0 65 0 0 -80z"/>
<path d="M1140 2068 c0 -270 101 -509 300 -708 191 -191 399 -283 671 -297
l116 -6 5 39 c7 54 -8 209 -28 291 -73 294 -297 559 -575 680 -121 53 -219 74
-361 80 l-128 6 0 -85z"/>
<path d="M3140 2130 c-267 -57 -484 -205 -637 -434 -55 -81 -114 -214 -137
-307 -20 -83 -37 -248 -29 -296 l6 -36 116 6 c183 9 325 52 486 145 109 64
272 227 339 340 94 158 146 343 146 518 l0 84 -102 -1 c-59 0 -140 -8 -188
-19z"/>
<path d="M1243 673 c-53 -11 -103 -89 -103 -163 0 -50 21 -99 56 -129 29 -26
43 -31 84 -31 41 0 55 5 84 30 77 68 64 245 -22 279 -37 14 -73 19 -99 14z
m83 -74 c15 -17 19 -36 19 -91 0 -61 -3 -72 -24 -89 -57 -46 -111 -3 -111 88
0 53 12 91 34 105 21 15 63 8 82 -13z"/>
<path d="M396 662 c-5 -8 -116 -303 -116 -308 0 -2 15 -4 34 -4 30 0 36 4 46
35 11 35 12 35 70 35 57 0 59 -1 65 -31 8 -33 21 -42 58 -37 l25 3 -35 90
c-18 50 -45 120 -59 158 -24 61 -28 67 -54 67 -16 0 -31 -3 -34 -8z m57 -144
l16 -48 -41 0 c-30 0 -39 3 -35 14 3 8 11 33 18 55 14 48 20 45 42 -21z"/>
<path d="M610 510 l0 -160 30 0 29 0 3 133 3 132 73 3 c69 3 72 4 72 27 0 25
0 25 -105 25 l-105 0 0 -160z"/>
<path d="M860 510 l0 -160 35 0 35 0 0 54 0 53 58 7 c70 8 97 25 112 71 10 30
9 41 -7 72 -24 51 -53 63 -150 63 l-83 0 0 -160z m162 93 c21 -18 24 -53 6
-71 -7 -7 -31 -12 -55 -12 l-43 0 0 50 0 50 37 0 c20 0 45 -7 55 -17z"/>
<path d="M1632 648 c8 -13 30 -49 47 -80 l33 -58 -46 -75 c-25 -42 -46 -78
-46 -81 0 -3 17 -4 38 -2 33 3 40 8 62 49 14 26 30 47 35 47 6 0 21 -21 35
-47 22 -41 29 -46 64 -49 l38 -3 -33 58 c-18 32 -39 69 -47 83 -14 24 -12 30
31 103 l46 77 -37 0 c-34 0 -39 -4 -66 -51 l-29 -52 -18 24 c-10 13 -24 36
-30 52 -10 23 -17 27 -51 27 -39 0 -40 0 -26 -22z"/>
<path d="M1922 513 l3 -158 31 -3 c30 -3 34 2 98 105 l66 108 0 -108 0 -108
33 3 32 3 3 158 3 158 -38 -3 c-35 -3 -40 -8 -97 -103 l-61 -100 -3 103 -3
102 -35 0 -35 0 3 -157z"/>
<path d="M2240 510 l0 -160 36 0 37 0 -6 116 c-3 64 -4 114 -2 112 2 -2 22
-53 43 -113 35 -98 42 -110 63 -110 21 0 28 12 64 110 l40 110 3 -112 3 -113
29 0 30 0 0 160 0 160 -43 0 -44 0 -38 -111 c-21 -61 -41 -107 -45 -102 -5 4
-22 46 -38 93 -17 47 -33 93 -37 103 -5 12 -19 17 -51 17 l-44 0 0 -160z"/>
<path d="M2857 562 c-7 -126 -11 -140 -43 -153 -27 -10 -33 -46 -9 -55 26 -10
69 12 88 44 13 22 20 61 24 127 l6 95 43 0 44 0 0 -136 0 -135 33 3 c17 2 31
6 30 11 -2 4 -3 75 -3 157 l0 150 -103 0 -104 0 -6 -108z"/>
<path d="M3130 510 l0 -160 34 0 c32 0 36 4 97 107 l64 108 3 -108 3 -107 29
0 30 0 0 160 0 160 -33 0 c-30 0 -36 -6 -92 -100 l-60 -101 -3 101 -3 100 -34
0 -35 0 0 -160z"/>
<path d="M3502 566 c-10 -106 -31 -166 -57 -166 -11 0 -15 -13 -15 -52 0 -64
10 -81 41 -76 20 2 25 10 27 40 l3 38 95 0 94 0 0 -40 c0 -38 2 -40 30 -40 26
0 30 4 30 28 0 15 3 44 6 65 6 33 4 37 -15 37 -20 0 -21 4 -21 135 l0 135
-104 0 -103 0 -11 -104z m148 -56 l0 -110 -56 0 -56 0 7 28 c16 58 24 109 25
150 l0 42 40 0 40 0 0 -110z"/>
<path d="M3790 510 l0 -160 110 0 110 0 0 25 c0 24 -2 25 -75 25 l-75 0 0 45
0 44 63 3 c56 3 62 5 65 26 3 21 0 22 -62 22 l-66 0 0 40 0 40 75 0 c73 0 75
1 75 25 l0 25 -110 0 -110 0 0 -160z"/>
<path d="M4050 510 l0 -160 30 0 c30 0 30 1 30 54 l0 53 61 7 c100 12 143 73
107 151 -18 41 -57 55 -148 55 l-80 0 0 -160z m160 90 c23 -23 24 -33 10 -61
-8 -15 -22 -19 -60 -19 l-50 0 0 50 0 50 40 0 c27 0 47 -7 60 -20z"/>
<path d="M1460 485 c0 -24 3 -25 60 -25 57 0 60 1 60 25 0 24 -3 25 -60 25
-57 0 -60 -1 -60 -25z"/>
<path d="M2640 485 c0 -24 3 -25 60 -25 57 0 60 1 60 25 0 24 -3 25 -60 25
-57 0 -60 -1 -60 -25z"/>
</g>
</svg>
